<svg xmlns="http://www.w3.org/2000/svg" viewBox="0 0 1921.03 648.94"><defs><style>.cls-1{fill:none;stroke:#8D8D8D;stroke-miterlimit:10;stroke-width:2px;}</style></defs><g id="Слой_2"><g id="Слой_1-2"><path class="cls-1" d="M0,647.94H1921"/><path class="cls-1" d="M0,632.94c257.47,0,515.1,2.53,772.55-1,228.88-3.14,457.71,1,686.61,1H1921"/><path class="cls-1" d="M0,617.94c257.71,0,515.67,3.34,773.34-1.49,228.63-4.29,457.16,1.49,685.82,1.49H1921"/><path class="cls-1" d="M0,602.94c258,0,516.3,4.16,774.18-2,228.38-5.46,456.55,2,685,2H1921"/><path class="cls-1" d="M0,587.94c258.18,0,516.94,4.95,775-2.52,228.15-6.6,455.93,2.52,684.14,2.52H1921"/><path class="cls-1" d="M0,572.94c258.39,0,517.55,5.72,775.81-3,227.94-7.69,455.34,3,683.35,3H1921"/><path class="cls-1" d="M0,557.94c258.56,0,518.09,6.4,776.5-3.42,113.52-4.32,226.11-6.82,339.65-1.76,114.38,5.09,228.53,5.18,343,5.18H1921"/><path class="cls-1" d="M0,542.94c258.69,0,518.54,7,777-3.75,113.67-4.72,226.26-7.56,340-1.94,114.11,5.64,228,5.69,342.18,5.69H1921"/><path class="cls-1" d="M0,527.94c258.75,0,518.83,7.5,777.36-4,113.79-5,226.37-8.14,340.18-2.08s227.56,6,341.62,6H1921"/><path class="cls-1" d="M0,512.94c258.73,0,518.94,7.89,777.44-4,113.84-5.23,226.45-8.5,340.32-2.16s227.4,6.16,341.4,6.16H1921"/><path class="cls-1" d="M0,497.94c259.27-.89,519,5.19,778.13-4.56,114.44-4.31,227.87-7.91,342.3-1.43,113.44,6.43,226.54,6.42,340.13,5.91,153.48-.7,307,.38,460.44.08"/><path class="cls-1" d="M0,482.94c135.4-.63,270.85,3.89,406.24,1.21,124.87-2.48,249.77-3.93,374.62-7,115.9-2.89,231.14-6.41,346.95.34,112.46,6.54,224.43,6.63,337,5.28,152.05-1.83,304.1.61,456.15.21"/><path class="cls-1" d="M0,467.94c134.4-.54,268.93,7,403.28,2,127.45-4.76,254.41-8.44,382-9.66,118-1.12,235.83-4.18,353.74,2.92,111,6.69,221.31,6.85,332.47,4.36,149.86-3.36,299.68.73,449.55.38"/><path class="cls-1" d="M0,452.94c133.2-.28,266.56,10.6,399.68,2.89,64.56-3.74,129-10.29,193.62-12.41,65.76-2.17,131.77-.85,197.55-.39,120.74.85,241.57-1.43,362.13,6.12,109.26,6.83,217.42,7.12,326.8,3.21,147.11-5.26,294.1.76,441.22.58"/><path class="cls-1" d="M0,437.94c131.9.1,263.86,14.37,395.65,3.83,66-5.28,131.76-14,197.93-17.29,67.74-3.37,135.94-.58,203.7,1,123.83,2.93,248,1.67,371.6,9.72a2722.33,2722.33,0,0,0,320.39,1.92c144-7.49,287.73.74,431.73.8"/><path class="cls-1" d="M0,422.94c130.63.54,260.93,18.14,391.39,4.81,67.54-6.91,134.69-17.85,202.46-22.42,69.85-4.7,140.41-.25,210.27,2.5,127.13,5,254.68,4.93,381.61,13.53,105.26,7.14,208.36,8,313.61.55,140.59-10,281,.7,421.66,1"/><path class="cls-1" d="M0,407.94c129.48,1,257.86,21.75,387.14,5.78,69.06-8.53,137.59-21.69,207-27.54,72-6.06,144.91.11,216.85,4,130.46,7,261.33,8.17,391.62,17.34,103.25,7.28,203.71,8.77,306.83-.81,137.15-12.74,274.23.66,411.58,1.25"/><path class="cls-1" d="M0,392.94c128.5,1.36,254.81,25.08,383.1,6.73,70.52-10.09,140.35-25.36,211.3-32.43,73.91-7.37,149.15.49,223,5.38,133.64,8.87,267.61,11.22,401.1,21,101.36,7.4,199.37,9.69,300.42-2.11,133.79-15.62,267.94.66,402.07,1.47"/><path class="cls-1" d="M0,377.94c127.72,1.62,252,28,379.48,7.61,71.85-11.48,142.84-28.7,215.21-36.84,75.58-8.51,152.86.85,228.35,6.66,81.89,6.29,163.83,14.1,245.94,16.88,54.66,1.85,109,3.17,163.59,7.28,99.67,7.51,195.56,10.7,294.73-3.26,130.69-18.4,262.48.72,393.7,1.67"/><path class="cls-1" d="M0,362.94c61.16.82,121.43,8.5,182.22,14.24,65.84,6.21,129,5.5,194.3-5.83,73-12.65,144.9-31.58,218.48-40.56,76.84-9.37,155.74,1.19,232.45,7.74,84,7.17,168.19,16.13,252.53,19.25,54.73,2,109.17,3.29,163.83,7.51,98.24,7.59,192.61,11.88,290.13-4.19,128-21.1,258.3.86,387.06,1.84"/><path class="cls-1" d="M0,347.94c60.59.74,120.1,9,180.25,15.13,65.82,6.73,128.92,5.9,194.16-6,73.78-13.5,146.43-33.85,220.93-43.33,77.57-9.87,157.51,1.47,234.89,8.55,85.59,7.83,171.32,17.77,257.26,20.95,54.73,2,109.15,3.29,163.8,7.59,97.19,7.66,190.74,13,287-4.82,126-23.38,255.72,1.09,382.71,2"/><path class="cls-1" d="M0,332.94c60.37.52,119.46,9.15,179.34,15.55,65.65,7,129,6.29,194-5.93,74.26-13.95,147.27-35.36,222.33-44.92,77.65-9.89,157.86,1.65,235.25,9,86.35,8.23,172.93,18.94,259.68,21.82,54.63,1.82,108.89,3.14,163.43,7.5,96.63,7.7,190.13,14,285.69-5.1,125-25,255.07,1.44,381.24,2.06"/><path class="cls-1" d="M0,317.94c59.89.79,118.64,8.88,178.1,15,65.75,6.79,128.71,5.72,193.89-6.06,74.75-13.5,148.43-33.62,223.87-43.22C673.34,273.8,753,285,830.24,292.31c85.51,8.08,171.21,18.47,257.1,21.45,54.83,1.9,109.44,3.39,164.2,7.23,96.51,6.77,190.2,13.5,285.62-5.47,126-25,256.72,2.12,383.85,2.42"/><path class="cls-1" d="M0,302.94c58.88.87,116.78,8.18,175.29,13.8,65.61,6.31,128.45,4.95,193.56-5.89,75.64-12.59,150.4-31,226.59-40.14,76.81-9.24,155.17,1.16,231.77,8.3C911,286.82,994.9,296.78,1079,299.7c55.16,1.92,110.24,3.17,165.37,6.2,96.23,5.29,190.44,12.25,285.52-6.46,128.41-25.27,261.62,3.31,391.09,3.5"/><path class="cls-1" d="M0,287.94c57.44.81,114.1,7.13,171.25,12.05,65.25,5.62,128.2,4.08,193.07-5.46,76.83-11.31,153-27.66,230.26-36,75.71-8.14,152.28,1.11,227.76,8,81.3,7.44,162.73,16.88,244.37,19.62,55.61,1.87,111.26,2.53,166.88,4.53,95.83,3.45,190.75,10.43,285.37-7.93,131.89-25.6,269.11,4.9,402,5.15"/><path class="cls-1" d="M0,272.94c55.69.64,110.79,5.82,166.26,9.89A968.24,968.24,0,0,0,358.74,278c78.27-9.73,156.07-23.84,234.66-31,74.22-6.75,148.7,1.16,222.68,7.76,78.3,7,156.71,15.84,235.33,18.32,56.16,1.77,112.44,1.58,168.62,2.39,95.38,1.39,191.06,8.16,285.2-9.78,136.2-25.95,278.56,6.8,415.78,7.25"/><path class="cls-1" d="M0,257.94c118.33.89,234,15.22,352.43,3.38,79.88-8,159.44-19.7,239.53-25.47,72.45-5.22,144.71,1.28,216.9,7.53,74.94,6.48,150,14.71,225.21,16.86,56.78,1.63,113.73.4,170.53-.06,95-.76,191.3,5.54,285-11.87,56.35-10.47,113.84-8.72,170.83-5.55,86.88,4.83,173.47,14.72,260.56,15.18"/><path class="cls-1" d="M0,242.94c115.7.33,230.05,10.34,345.77,1.63,81.58-6.13,163-15.38,244.66-19.67,70.47-3.7,140.53,1.46,210.75,7.31,71.4,6,142.88,13.52,214.54,15.33,57.46,1.46,115.09-.91,172.52-2.67,94.62-2.89,191.42,2.77,284.81-14.09,56.58-10.22,114.48-7.87,171.62-4.56,92.12,5.33,184,16,276.33,16.72"/><path class="cls-1" d="M0,227.94c113.17-.22,226,5.7,339.11-.12,83.27-4.28,166.43-11.07,249.78-13.86,68.44-2.29,136.39,1.65,204.6,7.1,67.84,5.41,135.76,12.31,203.84,13.79,58.16,1.27,116.46-2.26,174.52-5.29,94.37-4.92,191.42,0,284.61-16.32,56.8-10,115.14-7,172.41-3.56,97.38,5.84,194.51,17.32,292.13,18.26"/><path class="cls-1" d="M0,212.94c110.91-.69,221.91,1.49,332.78-1.8,151.6-4.49,302-13,453.46-1.44,64.46,4.9,129,11.14,193.66,12.33,58.85,1.08,117.78-3.54,176.44-7.76,60.66-4.37,121.37-9.23,182.21-9.91,34.74-.38,68-2.73,102.21-8.52,57-9.66,115.72-6.16,173.1-2.62,102.37,6.32,204.51,18.55,307.14,19.72"/><path class="cls-1" d="M0,197.94q163.57-1.51,327.13-3.34c151-1.61,302-7.56,452.77,3.32,61.43,4.44,122.91,10.06,184.52,11,59.51.92,119-4.63,178.2-9.92,61.48-5.49,123.07-11.75,184.84-12.54,33.75-.44,66.13-2.35,99.4-7.76,57.15-9.28,116.13-5.43,173.59-1.81,106.83,6.75,213.44,19.68,320.55,21"/><path class="cls-1" d="M0,182.94c257.93-2.65,517.24-15.07,774.91,2.59,58.93,4,117.88,9.11,177,9.93,60.09.83,120-5.43,179.72-11.62,62.14-6.45,124.44-13.83,187-14.68,32.94-.45,64.61-2.08,97.12-7.13,57.23-8.88,116.27-4.88,173.76-1.19,110.48,7.1,220.77,20.66,331.54,22.1"/><path class="cls-1" d="M0,167.94c43.84-.38,87.36-3,131.1-5.33,62.69-3.31,125.45-1.38,188.17-.41,150.66,2.31,302.08.28,452.48,10.1,57.13,3.73,114.26,8.35,171.52,9.14,60.58.83,120.82-5.81,180.92-12.7,62.61-7.18,125.36-15.34,188.46-16.15,32.35-.42,63.57-1.87,95.53-6.68,57.16-8.61,116.15-4.55,173.51-.82,113,7.33,226,21.45,339.31,22.85"/><path class="cls-1" d="M0,152.94c43.47-.16,86.41-3.22,129.74-5.92,62.55-3.89,125.42-1.85,188-.54,150.84,3.16,302.52,2,453.12,11.54,56.19,3.56,112.38,7.86,168.7,8.74,60.95,1,121.31-5.67,181.73-13,62.83-7.64,125.72-16.14,189.11-16.79,32.07-.33,63.13-1.79,94.82-6.46,56.92-8.39,115.62-4.5,172.73-.78,114.27,7.45,228.44,22,343,23.22"/><path class="cls-1" d="M0,137.94c44.1-.21,87.76-3.2,131.74-5.78,62.66-3.68,125.55-1.84,188.26-.54,150.13,3.1,301,2.24,450.9,11.35,56.18,3.42,112.35,7.52,168.65,8.5,60.82,1.05,121.22-5.68,181.54-12.77,62.7-7.38,125.48-15.6,188.69-16.44,32.61-.44,64.37-2.07,96.67-6.34,57.57-7.61,116.15-4.33,173.88-.63,113.51,7.29,226.88,21,340.67,22.65"/><path class="cls-1" d="M0,122.94c108.63-.58,216.32-8.11,325.14-6,148.45,2.94,297.5,2.31,445.76,10.74,56.19,3.2,112.36,7,168.65,8,60.53,1,120.76-5.41,180.84-12.07,62.4-6.92,124.87-14.62,187.72-15.53,34.06-.5,67.48-2.19,101.31-6,58.64-6.6,117.66-4.13,176.42-.51,111.69,6.87,223.22,19.59,335.16,21.34"/><path class="cls-1" d="M0,107.94c111.06-.56,221.37-7.49,332.57-5.43,146,2.69,292.48,2.26,438.33,9.81,56.19,2.9,112.37,6.37,168.65,7.27,60.12,1,120-4.94,179.74-11,62-6.31,124-13.3,186.32-14.17,36.26-.5,72.08-2.22,108.18-5.47,168.74-15.22,338.46,16.48,507.21,19"/><path class="cls-1" d="M0,92.94c114.05-.48,227.57-6.7,341.71-4.79,143,2.41,286.33,2.11,429.19,8.63,116.68,5.33,230.5,7.32,347-3.28,100.47-9.14,200.82-10.24,301.32-17.29C1586.66,64.46,1753.66,90.8,1921,92.94"/><path class="cls-1" d="M0,77.94c117.44-.36,234.52-5.8,352-4.06C491.6,76,631.43,75.74,770.91,81.17c115.85,4.52,229.68,6.37,345.39-2.74,103-8.13,205.92-9.18,309-14.62C1591,55.07,1755.53,76.37,1921,77.94"/><path class="cls-1" d="M0,62.94c121-.2,241.86-4.8,362.92-3.29,136,1.71,272.08,1.53,408,5.87,115,3.68,228.76,5.38,343.68-2.17,105.77-7,211.39-7.69,317.25-11.79,163.45-6.33,325.85,10.49,489.17,11.38"/><path class="cls-1" d="M0,47.94c257-.1,513.9-4.48,770.9,1.93,114.25,2.84,227.78,4.35,342-1.6,108.5-5.65,216.89-6,325.47-8.94,161.18-4.39,321.59,8.41,482.66,8.61"/><path class="cls-1" d="M0,32.94c257,.19,513.92-3.37,770.9,1.31C995.5,38.33,1220,31,1444.53,27c159-2.88,317.56,6.39,476.48,6"/><path class="cls-1" d="M0,17.94c257,.38,513.93-2.33,770.9.77,226.39,2.72,452.76-1.91,679.14-4.43,157.06-1.76,314,4.48,471,3.66"/><path class="cls-1" d="M0,2.94C484.87,3.79,969.72,4,1454.55,1.15c155.5-.92,311,2.75,466.46,1.79"/></g></g></svg>